<?xml version="1.0" standalone="no"?>
<!DOCTYPE svg PUBLIC "-//W3C//DTD SVG 20010904//EN"
 "http://www.w3.org/TR/2001/REC-SVG-20010904/DTD/svg10.dtd">
<svg version="1.0" xmlns="http://www.w3.org/2000/svg"
 width="512.000000pt" height="512.000000pt" viewBox="0 0 512.000000 512.000000"
 preserveAspectRatio="xMidYMid meet">

<g transform="translate(0.000000,512.000000) scale(0.100000,-0.100000)"
fill="#000000" stroke="none">
<path d="M1 4223 c1 -548 5 -869 10 -823 102 905 834 1604 1747 1669 795 56
1541 -388 1863 -1109 48 -108 117 -315 108 -325 -3 -3 -92 36 -197 85 -106 50
-202 90 -213 90 -28 0 -79 -53 -79 -82 0 -45 21 -154 46 -243 64 -228 238
-495 406 -622 48 -37 55 -53 42 -100 -6 -21 -9 -19 -68 26 -209 164 -481 288
-736 336 -129 25 -369 25 -505 1 -271 -48 -566 -190 -795 -381 -77 -65 -203
-192 -278 -280 -42 -50 -42 -50 -60 -29 -48 59 -142 184 -142 188 0 3 13 6 29
6 38 0 181 42 256 75 216 96 433 308 559 545 74 140 136 352 136 466 0 52 -33
94 -74 94 -13 0 -212 -88 -442 -195 -229 -107 -419 -193 -421 -191 -2 2 97
250 221 552 124 301 226 561 226 576 0 68 -85 100 -264 100 -505 -2 -984 -465
-1067 -1032 -16 -114 -7 -312 21 -415 27 -102 86 -224 144 -300 96 -125 250
-226 402 -263 l70 -17 55 -80 c30 -44 81 -113 114 -154 33 -41 68 -84 78 -97
18 -23 18 -25 -37 -121 -100 -178 -170 -381 -183 -530 -3 -40 -9 -73 -13 -73
-12 0 -126 72 -200 127 -422 315 -690 782 -749 1303 -5 44 -9 -568 -10 -1462
l-1 -1538 2560 0 2560 0 0 2560 0 2560 -2560 0 -2560 0 1 -897z"/>
<path d="M2253 3590 c-69 -45 -92 -157 -46 -219 38 -50 71 -66 133 -66 72 0
105 21 138 88 32 63 24 115 -28 171 -35 37 -42 40 -101 43 -52 3 -70 0 -96
-17z"/>
<path d="M2969 3587 c-125 -83 -64 -287 86 -287 156 0 216 209 83 290 -47 28
-125 27 -169 -3z"/>
</g>
</svg>
